<svg width="70" height="45" viewBox="0 0 70 45" fill="none" xmlns="http://www.w3.org/2000/svg">
<path fill-rule="evenodd" clip-rule="evenodd" d="M70 0H0V45H70V0ZM29.8 28.8H26C26 32.201 28.793 35.089 32.6499 36.058V40.2H38.3501V36.058C42.207 35.089 45 32.201 45 28.8C45 23.518 39.9839 22.264 35.9561 21.257C31.7759 20.25 29.8 19.49 29.8 17.4C29.8 15.348 32.4031 13.6 35.5 13.6C38.5969 13.6 41.2 15.348 41.2 17.4H45C45 13.999 42.207 11.111 38.3501 10.142V6H32.6499V10.142C28.793 11.111 26 13.999 26 17.4C26 22.682 31.0161 23.936 35.0439 24.943C39.2241 25.95 41.2 26.71 41.2 28.8C41.2 30.852 38.5969 32.6 35.5 32.6C32.4031 32.6 29.8 30.852 29.8 28.8Z" fill="white"/>
</svg>
